<svg width="87" height="93" viewBox="0 0 87 93" fill="none" xmlns="http://www.w3.org/2000/svg">
<g clip-path="url(#clip0_2631_7232)">
<path d="M86.9998 18.012V65.6569C86.4538 66.4316 85.7173 66.6549 84.771 66.6452C80.6301 66.6005 76.4892 66.6452 72.3482 66.6083C71.6429 66.6025 71.4408 66.7461 71.4447 67.4898C71.4777 74.264 71.466 81.0402 71.4641 87.8144C71.4641 91.0821 69.5695 92.9655 66.2836 92.9655C44.9319 92.9655 23.5822 92.9616 2.23057 92.983C1.28618 92.983 0.543886 92.7772 0.0017395 91.9966V57.3294C0.264069 57.2614 0.194114 57.0304 0.225205 56.8576C0.598295 54.7801 1.34253 52.8424 2.34133 50.9842C5.54369 45.0352 8.71301 39.0687 11.9212 33.1215C12.2865 32.4439 12.442 31.7818 12.44 31.0188C12.4225 22.3127 12.4284 13.6046 12.4284 4.89845C12.4284 2.69862 13.4427 1.1667 15.4694 0.292979C15.6307 0.223082 15.8717 0.252206 15.9241 0.0017395H67.5797C70.7296 1.23465 71.4641 2.34331 71.4641 5.86731C71.4641 9.39131 71.4855 12.6979 71.4466 16.1112C71.4388 16.8354 71.5846 17.0742 72.3716 17.0665C76.5047 17.0218 80.6398 17.0703 84.7749 17.0257C85.7192 17.016 86.4577 17.2354 86.9998 18.014V18.012ZM83.8927 45.7963C83.8927 37.5659 83.8791 29.3354 83.914 21.105C83.9179 20.2895 83.7119 20.1206 82.9152 20.1206C62.85 20.1458 42.7867 20.1458 22.7214 20.1206C21.913 20.1206 21.7265 20.3089 21.7304 21.1108C21.7615 31.0518 21.7498 40.9928 21.7498 50.9338C21.7498 51.2541 21.7498 51.5725 21.7498 51.9007M21.7984 51.9007C21.7984 51.9007 28.001 50.1474 30.77 56.8343C31.5084 59.1894 31.0868 61.3951 29.7207 63.4746C29.9034 63.4998 29.9928 63.5211 30.0821 63.5211C47.7826 63.5211 65.4849 63.5211 83.1853 63.5406C83.8285 63.5406 83.9063 63.327 83.9024 62.7736C83.8791 59.2885 83.8829 55.8033 83.9004 52.3181C83.9024 51.8657 83.7663 51.5337 83.471 51.1959M12.4284 38.9056C12.2515 39.1327 12.1874 39.1929 12.1486 39.2667C9.64574 43.9537 7.13709 48.6369 4.64399 53.3297C3.67629 55.1529 3.13414 57.1158 3.12831 59.17C3.09722 69.1751 3.11471 79.1801 3.09528 89.1871C3.09528 89.7327 3.23713 89.8822 3.78705 89.8803C9.83811 89.8609 15.8911 89.8667 21.9422 89.8706C22.2783 89.8706 22.5329 89.8298 22.768 89.5192C25.3777 86.0845 26.4737 82.2848 25.71 77.988C25.2339 75.3028 23.897 73.0505 22.2667 70.9419C21.6118 70.0954 21.639 69.3498 22.2706 68.4916C23.8951 66.2821 25.4729 64.0396 27.0566 61.799C28.4304 59.8574 28.3139 57.6032 26.7826 56.0615C25.2359 54.5044 22.9993 54.3743 21.0444 55.7509C19.1421 57.0886 17.2513 58.4419 15.3626 59.7952C14.7427 60.2398 14.1287 60.6553 13.3203 60.2554C12.4847 59.8399 12.4187 59.0982 12.4206 58.2866C12.4323 51.8968 12.4264 45.507 12.4264 38.9056H12.4284ZM47.9711 66.6258C42.1182 66.6258 36.2595 66.7636 30.4144 66.5578C28.1176 66.4763 26.6524 67.115 25.6284 69.0955C25.3758 69.5828 25.2786 69.8741 25.6323 70.342C27.1091 72.2933 28.1312 74.4698 28.6306 76.8677C28.7414 77.3997 28.9843 77.4832 29.4739 77.4832C42.1823 77.4696 54.8907 77.4657 67.5991 77.489C68.2676 77.489 68.3764 77.2735 68.3705 76.6774C68.3433 73.6136 68.3278 70.5497 68.3783 67.4859C68.39 66.7364 68.1704 66.6063 67.4709 66.6083C60.9709 66.6374 54.471 66.6258 47.973 66.6258H47.9711ZM15.5355 55.8596C16.375 55.2655 17.057 54.7335 17.7896 54.2811C18.425 53.8889 18.664 53.4229 18.6621 52.6463C18.631 41.5772 18.6407 30.5081 18.6407 19.4391C18.6407 17.414 19.0177 17.0451 21.0872 17.0451C36.4577 17.0451 51.8283 17.0451 67.1988 17.0451C67.3931 17.0451 67.5894 17.0218 67.7798 17.049C68.2617 17.1169 68.3705 16.9034 68.3647 16.4529C68.3395 14.8394 68.32 13.224 68.3725 11.6125C68.3939 10.9562 68.1782 10.83 67.5661 10.8339C63.6506 10.8611 59.7351 10.8475 55.8196 10.8475C42.6817 10.8475 29.5439 10.8475 16.4061 10.8475C15.93 10.8475 15.5103 10.7135 15.5122 11.531C15.5433 26.2463 15.5336 40.9617 15.5336 55.8615L15.5355 55.8596ZM26.2988 89.8667C39.8661 89.8667 53.2526 89.8706 66.6411 89.8609C67.7662 89.8609 68.3453 89.2493 68.3531 88.0979C68.3686 85.9058 68.3103 83.7099 68.3822 81.5198C68.4094 80.6732 68.1335 80.5529 67.3659 80.5529C54.9471 80.5781 42.5302 80.5703 30.1113 80.5703C29.95 80.5703 29.7868 80.5878 29.6274 80.5664C29.2233 80.516 29.0678 80.6596 29.0484 81.0868C29.0173 81.8265 28.9434 82.5663 28.8307 83.2983C28.4751 85.6088 27.6143 87.7387 26.3007 89.8648L26.2988 89.8667ZM41.9278 7.74678C49.9473 7.74678 57.9687 7.75066 65.9882 7.74095C66.7538 7.74095 67.7973 8.07879 68.2073 7.59728C68.596 7.13906 68.3492 6.13137 68.3511 5.36444C68.3589 3.5238 67.9256 3.10053 66.0698 3.10053C49.9978 3.10053 33.9238 3.10053 17.8518 3.10053C17.5933 3.10053 17.333 3.08694 17.0765 3.10636C16.1593 3.17431 15.588 3.73155 15.5433 4.65187C15.5083 5.36055 15.5957 6.077 15.518 6.77792C15.4267 7.59339 15.7046 7.77008 16.5071 7.76619C24.9794 7.73319 33.4536 7.74678 41.9258 7.74678H41.9278Z" fill="#C0C9C0"/>
<path d="M43.4436 86.7662C42.6353 86.7662 41.825 86.7332 41.0186 86.7778C40.492 86.807 40.3909 86.6167 40.3812 86.1274C40.3307 83.6654 40.3151 83.6674 42.781 83.6674C43.8478 83.6674 44.9166 83.6965 45.9834 83.6557C46.51 83.6344 46.611 83.8169 46.6207 84.3062C46.6713 86.7681 46.6868 86.7681 44.219 86.7681C43.9605 86.7681 43.7021 86.7681 43.4417 86.7681L43.4436 86.7662Z" fill="#C0C9C0"/>
<path d="M83.8929 44.5752V62.7738L31.7749 63.5408L29.7209 63.4748C29.7209 63.4748 32.0547 60.3255 30.7702 56.8345C30.7702 56.8345 29.1088 51.9009 25.4284 51.9009H21.7481L21.7966 46.4896L83.889 44.5733L83.8929 44.5752Z" fill="white"/>
<path d="M47.2205 32.625C45.5647 32.625 44.0529 33.6331 43.549 35.0444L42.9011 36.9933L41.0294 39.2111C40.5255 39.8159 40.2375 40.488 40.2375 41.2272V47.7461C40.2375 49.2918 41.6773 50.5687 43.405 50.5687C45.1328 50.5687 45.9967 49.5607 46.3566 48.351H59.6747C60.0346 49.5607 61.1144 50.5687 62.6262 50.5687C64.138 50.5687 65.7938 49.2918 65.7938 47.7461V41.2272C65.7938 40.488 65.5058 39.8159 65.0019 39.2111L63.1301 36.9933L62.4822 35.0444C61.9783 33.6331 60.4665 32.625 58.8108 32.625H47.2205ZM47.2205 34.8428H58.7388C59.3147 34.8428 59.8186 35.1788 59.9626 35.6492L60.7545 38.0014L62.9142 40.5552C63.0582 40.7568 63.2021 40.9584 63.2021 41.2272V47.7461C63.2021 48.0822 62.9142 48.2838 62.5542 48.2838C62.1943 48.2838 61.9063 48.015 61.9063 47.7461V46.066H44.0529V47.7461C44.0529 48.0822 43.765 48.2838 43.405 48.2838C43.0451 48.2838 42.7571 48.015 42.7571 47.7461V41.2272C42.7571 40.9584 42.8291 40.7568 43.0451 40.5552L45.2048 38.0014L45.9967 35.6492C46.1406 35.1788 46.6446 34.8428 47.2205 34.8428ZM46.5726 40.4208C45.8527 40.4208 45.2768 40.8912 45.2768 41.5633C45.2768 42.2353 45.8527 42.7058 46.5726 42.7058C47.2925 42.7058 47.8684 42.2353 47.8684 41.5633C47.8684 40.8912 47.2925 40.4208 46.5726 40.4208ZM59.3147 40.4208C58.5948 40.4208 58.0189 40.8912 58.0189 41.5633C58.0189 42.2353 58.5948 42.7058 59.3147 42.7058C60.0346 42.7058 60.6105 42.2353 60.6105 41.5633C60.6105 40.8912 60.0346 40.4208 59.3147 40.4208Z" fill="#C0C9C0"/>
<path d="M30.9937 35.0719V25.5562H39.9656" stroke="#C0C9C0" stroke-width="1.42506" stroke-linecap="round"/>
<path d="M74.7656 48.9375L74.7656 58.4531L65.7938 58.4531" stroke="#C0C9C0" stroke-width="1.42506" stroke-linecap="round"/>
</g>
<defs>
<clipPath id="clip0_2631_7232">
<rect width="87" height="92.9812" fill="white"/>
</clipPath>
</defs>
</svg>
