<svg width="207" height="153" viewBox="0 0 207 153" fill="none" xmlns="http://www.w3.org/2000/svg">
<g clip-path="url(#clip0_2631_7316)">
<path d="M187.536 23.992H127.014V107.502H187.536V23.992Z" fill="#EDF2EB"/>
<path d="M183.648 38.4019H132.041V102.744H183.648V38.4019Z" fill="#C0C9C0"/>
<path d="M183.648 32.3699H132.041V35.0508H183.648V32.3699Z" fill="#C0C9C0"/>
<path d="M146.793 49.7958C145.838 49.7958 144.966 50.3982 144.675 51.2417L144.301 52.4064L143.221 53.7318C142.93 54.0933 142.764 54.4949 142.764 54.9367V58.8326C142.764 59.7563 143.595 60.5194 144.592 60.5194C145.589 60.5194 146.087 59.917 146.295 59.194H153.979C154.186 59.917 154.81 60.5194 155.682 60.5194C156.554 60.5194 157.509 59.7563 157.509 58.8326V54.9367C157.509 54.4949 157.343 54.0933 157.052 53.7318L155.973 52.4064L155.599 51.2417C155.308 50.3982 154.436 49.7958 153.48 49.7958H146.793ZM146.793 51.1212H153.439C153.771 51.1212 154.062 51.322 154.145 51.6031L154.602 53.0089L155.848 54.5351C155.931 54.6556 156.014 54.7761 156.014 54.9367V58.8326C156.014 59.0334 155.848 59.1539 155.64 59.1539C155.433 59.1539 155.266 58.9932 155.266 58.8326V57.8285H144.966V58.8326C144.966 59.0334 144.8 59.1539 144.592 59.1539C144.384 59.1539 144.218 58.9932 144.218 58.8326V54.9367C144.218 54.7761 144.26 54.6556 144.384 54.5351L145.63 53.0089L146.087 51.6031C146.17 51.322 146.461 51.1212 146.793 51.1212ZM146.419 54.4547C146.004 54.4547 145.672 54.7359 145.672 55.1375C145.672 55.5392 146.004 55.8203 146.419 55.8203C146.835 55.8203 147.167 55.5392 147.167 55.1375C147.167 54.7359 146.835 54.4547 146.419 54.4547ZM153.771 54.4547C153.356 54.4547 153.024 54.7359 153.024 55.1375C153.024 55.5392 153.356 55.8203 153.771 55.8203C154.186 55.8203 154.519 55.5392 154.519 55.1375C154.519 54.7359 154.186 54.4547 153.771 54.4547Z" fill="#EDF2EB"/>
<path d="M176.946 54.4874H159.52V55.1576H176.946V54.4874Z" fill="#EDF2EB"/>
<path d="M176.946 52.4767H159.52V53.1469H176.946V52.4767Z" fill="#EDF2EB"/>
<path d="M166.893 50.466H159.52V51.1362H166.893V50.466Z" fill="#EDF2EB"/>
<path d="M176.946 56.4981H159.52V57.1683H176.946V56.4981Z" fill="#EDF2EB"/>
<path d="M176.946 58.5087H159.52V59.179H176.946V58.5087Z" fill="#EDF2EB"/>
<rect x="135.392" y="48.4553" width="3.95349" height="5.03752" fill="#DCE2DA"/>
<g clip-path="url(#clip1_2631_7316)">
<path d="M135.392 51.8617L136.128 50.2842L136.904 51.8617L138.179 49.5483L139.343 51.8617V53.4661H135.392V51.8617Z" fill="#EDF2EB"/>
<path d="M136.904 49.876C137.085 49.876 137.232 49.7293 137.232 49.5483C137.232 49.3673 137.085 49.2205 136.904 49.2205C136.723 49.2205 136.577 49.3673 136.577 49.5483C136.577 49.7293 136.723 49.876 136.904 49.876Z" fill="#EDF2EB"/>
</g>
<rect x="135.392" y="55.8278" width="3.95349" height="5.03752" fill="#DCE2DA"/>
<g clip-path="url(#clip2_2631_7316)">
<path d="M135.392 59.2342L136.128 57.6567L136.904 59.2342L138.179 56.9208L139.343 59.2342V60.8386H135.392V59.2342Z" fill="#EDF2EB"/>
<path d="M136.904 57.2485C137.085 57.2485 137.232 57.1018 137.232 56.9208C137.232 56.7398 137.085 56.593 136.904 56.593C136.723 56.593 136.577 56.7398 136.577 56.9208C136.577 57.1018 136.723 57.2485 136.904 57.2485Z" fill="#EDF2EB"/>
</g>
</g>
<g clip-path="url(#clip3_2631_7316)">
<path d="M205.851 69.0166H145.329V152.527H205.851V69.0166Z" fill="#EDF2EB"/>
<path d="M201.963 83.4265H150.356V147.768H201.963V83.4265Z" fill="#C0C9C0"/>
<path d="M201.963 77.3944H150.356V80.0753H201.963V77.3944Z" fill="#C0C9C0"/>
<path d="M165.108 94.8204C164.153 94.8204 163.281 95.4228 162.99 96.2662L162.616 97.431L161.536 98.7564C161.245 99.1178 161.079 99.5195 161.079 99.9613V103.857C161.079 104.781 161.91 105.544 162.907 105.544C163.904 105.544 164.402 104.942 164.61 104.219H172.294C172.502 104.942 173.125 105.544 173.997 105.544C174.869 105.544 175.824 104.781 175.824 103.857V99.9613C175.824 99.5195 175.658 99.1178 175.367 98.7564L174.288 97.431L173.914 96.2662C173.623 95.4228 172.751 94.8204 171.795 94.8204H165.108ZM165.108 96.1458H171.754C172.086 96.1458 172.377 96.3466 172.46 96.6277L172.917 98.0334L174.163 99.5596C174.246 99.6801 174.329 99.8006 174.329 99.9613V103.857C174.329 104.058 174.163 104.178 173.955 104.178C173.748 104.178 173.581 104.018 173.581 103.857V102.853H163.281V103.857C163.281 104.058 163.115 104.178 162.907 104.178C162.699 104.178 162.533 104.018 162.533 103.857V99.9613C162.533 99.8006 162.575 99.6801 162.699 99.5596L163.945 98.0334L164.402 96.6277C164.485 96.3466 164.776 96.1458 165.108 96.1458ZM164.734 99.4793C164.319 99.4793 163.987 99.7605 163.987 100.162C163.987 100.564 164.319 100.845 164.734 100.845C165.15 100.845 165.482 100.564 165.482 100.162C165.482 99.7605 165.15 99.4793 164.734 99.4793ZM172.086 99.4793C171.671 99.4793 171.339 99.7605 171.339 100.162C171.339 100.564 171.671 100.845 172.086 100.845C172.502 100.845 172.834 100.564 172.834 100.162C172.834 99.7605 172.502 99.4793 172.086 99.4793Z" fill="#EDF2EB"/>
<path d="M195.261 99.5119H177.835V100.182H195.261V99.5119Z" fill="#EDF2EB"/>
<path d="M195.261 97.5013H177.835V98.1715H195.261V97.5013Z" fill="#EDF2EB"/>
<path d="M185.208 95.4906H177.835V96.1608H185.208V95.4906Z" fill="#EDF2EB"/>
<path d="M195.261 101.523H177.835V102.193H195.261V101.523Z" fill="#EDF2EB"/>
<path d="M195.261 103.533H177.835V104.204H195.261V103.533Z" fill="#EDF2EB"/>
<rect x="153.707" y="93.4799" width="3.95349" height="5.03752" fill="#DCE2DA"/>
<g clip-path="url(#clip4_2631_7316)">
<path d="M153.707 96.8863L154.443 95.3087L155.219 96.8863L156.494 94.5729L157.658 96.8863V98.4906H153.707V96.8863Z" fill="#EDF2EB"/>
<path d="M155.219 94.9006C155.4 94.9006 155.547 94.7539 155.547 94.5729C155.547 94.3918 155.4 94.2451 155.219 94.2451C155.038 94.2451 154.892 94.3918 154.892 94.5729C154.892 94.7539 155.038 94.9006 155.219 94.9006Z" fill="#EDF2EB"/>
</g>
<rect x="153.707" y="100.852" width="3.95349" height="5.03752" fill="#DCE2DA"/>
<g clip-path="url(#clip5_2631_7316)">
<path d="M153.707 104.259L154.443 102.681L155.219 104.259L156.494 101.945L157.658 104.259V105.863H153.707V104.259Z" fill="#EDF2EB"/>
<path d="M155.219 102.273C155.4 102.273 155.547 102.126 155.547 101.945C155.547 101.764 155.4 101.618 155.219 101.618C155.038 101.618 154.892 101.764 154.892 101.945C154.892 102.126 155.038 102.273 155.219 102.273Z" fill="#EDF2EB"/>
</g>
</g>
<g clip-path="url(#clip6_2631_7316)">
<path d="M122.1 25.2788V92.146C121.333 93.2333 120.3 93.5467 118.972 93.533C113.16 93.4704 107.349 93.533 101.537 93.4813C100.547 93.4731 100.263 93.6747 100.269 94.7184C100.315 104.226 100.299 113.736 100.296 123.243C100.296 127.829 97.6371 130.472 93.0255 130.472C63.0595 130.472 33.0963 130.467 3.13033 130.497C1.80494 130.497 0.763165 130.208 0.00228882 129.113V80.4588C0.370455 80.3634 0.272277 80.0391 0.315912 79.7966C0.839525 76.8809 1.88403 74.1615 3.28578 71.5537C7.78013 63.2045 12.2281 54.8307 16.7307 46.4843C17.2434 45.5333 17.4615 44.6041 17.4588 43.5332C17.4343 31.3145 17.4424 19.0932 17.4424 6.87458C17.4424 3.78723 18.866 1.63725 21.7104 0.411029C21.9368 0.312932 22.275 0.353806 22.3486 0.00228882H94.8445C99.2652 1.73262 100.296 3.28856 100.296 8.23432C100.296 13.1801 100.326 17.8207 100.272 22.6111C100.261 23.6275 100.465 23.9627 101.57 23.9518C107.37 23.8891 113.174 23.9572 118.977 23.8945C120.303 23.8809 121.339 24.1888 122.1 25.2815V25.2788ZM117.739 64.2727C117.739 52.7216 117.72 41.1706 117.769 29.6196C117.774 28.4752 117.485 28.2381 116.367 28.2381C88.2066 28.2735 60.0488 28.2735 31.8882 28.2381C30.7537 28.2381 30.4919 28.5024 30.4973 29.6278C30.541 43.5795 30.5246 57.5312 30.5246 71.4828C30.5246 71.9324 30.5246 72.3793 30.5246 72.8399M30.5928 72.8399C30.5928 72.8399 39.2979 70.3792 43.1841 79.7639C44.2204 83.0693 43.6286 86.1648 41.7114 89.0832C41.9677 89.1186 42.0932 89.1486 42.2186 89.1486C67.0603 89.1486 91.9047 89.1486 116.746 89.1759C117.649 89.1759 117.758 88.8761 117.753 88.0995C117.72 83.2082 117.725 78.317 117.75 73.4257C117.753 72.7908 117.562 72.3248 117.147 71.8507M17.4424 54.6019C17.1943 54.9207 17.1043 55.0051 17.0497 55.1087C13.5372 61.6867 10.0164 68.2592 6.51746 74.8454C5.15934 77.4041 4.39846 80.159 4.39028 83.042C4.34665 97.0836 4.37119 111.125 4.34392 125.17C4.34392 125.935 4.543 126.145 5.31479 126.142C13.8071 126.115 22.3022 126.123 30.7946 126.129C31.2664 126.129 31.6236 126.072 31.9536 125.636C35.6162 120.815 37.1543 115.482 36.0825 109.452C35.4144 105.684 33.5381 102.523 31.25 99.5633C30.331 98.3752 30.3692 97.3289 31.2555 96.1245C33.5354 93.0235 35.7498 89.8762 37.9725 86.7316C39.9006 84.0067 39.7369 80.843 37.5879 78.6794C35.4171 76.494 32.2782 76.3114 29.5346 78.2434C26.8648 80.1209 24.2112 82.0202 21.5604 83.9194C20.6905 84.5435 19.8287 85.1266 18.6942 84.5653C17.5215 83.9821 17.4288 82.9412 17.4315 81.8022C17.4479 72.8344 17.4397 63.8666 17.4397 54.6019H17.4424ZM67.3248 93.5058C59.1106 93.5058 50.8883 93.6992 42.685 93.4104C39.4615 93.296 37.4052 94.1925 35.968 96.9719C35.6135 97.6559 35.4771 98.0646 35.9735 98.7213C38.0461 101.46 39.4806 104.515 40.1815 107.88C40.3369 108.626 40.6778 108.744 41.365 108.744C59.2006 108.725 77.0362 108.719 94.8718 108.752C95.8099 108.752 95.9627 108.449 95.9545 107.613C95.9163 103.313 95.8945 99.0129 95.9654 94.7129C95.9818 93.6611 95.6736 93.4785 94.6918 93.4813C85.5695 93.5221 76.4472 93.5058 67.3275 93.5058H67.3248ZM21.8032 78.396C22.9813 77.5622 23.9385 76.8155 24.9667 76.1806C25.8584 75.6302 26.1939 74.9762 26.1912 73.8862C26.1475 58.3514 26.1612 42.8165 26.1612 27.2816C26.1612 24.4395 26.6902 23.9218 29.5946 23.9218C51.1664 23.9218 72.7382 23.9218 94.31 23.9218C94.5827 23.9218 94.8582 23.8891 95.1254 23.9272C95.8018 24.0226 95.9545 23.7229 95.9463 23.0907C95.9109 20.8263 95.8836 18.5591 95.9572 16.2974C95.9872 15.3764 95.6845 15.1993 94.8254 15.2047C89.3302 15.2429 83.835 15.2238 78.3398 15.2238C59.9015 15.2238 41.4632 15.2238 23.0249 15.2238C22.3568 15.2238 21.7677 15.0358 21.7704 16.183C21.8141 36.8353 21.8004 57.4876 21.8004 78.3987L21.8032 78.396ZM36.9089 126.123C55.9499 126.123 74.7372 126.129 93.5273 126.115C95.1063 126.115 95.919 125.257 95.9299 123.641C95.9518 120.564 95.8699 117.482 95.9708 114.409C96.009 113.221 95.6218 113.052 94.5445 113.052C77.1153 113.087 59.6888 113.076 42.2595 113.076C42.0332 113.076 41.8041 113.101 41.5805 113.071C41.0132 113 40.7951 113.202 40.7678 113.801C40.7242 114.839 40.6205 115.878 40.4623 116.905C39.9633 120.147 38.7552 123.137 36.9116 126.121L36.9089 126.123ZM58.8434 10.8721C70.0983 10.8721 81.356 10.8775 92.611 10.8639C93.6855 10.8639 95.15 11.338 95.7254 10.6622C96.2708 10.0192 95.9245 8.60492 95.9272 7.52856C95.9381 4.94532 95.33 4.35129 92.7255 4.35129C70.1692 4.35129 47.6102 4.35129 25.0539 4.35129C24.6912 4.35129 24.3258 4.33221 23.9658 4.35946C22.6786 4.45484 21.8768 5.23689 21.8141 6.52851C21.765 7.52312 21.8877 8.52862 21.7786 9.51232C21.6504 10.6568 22.0404 10.9048 23.1667 10.8993C35.0571 10.853 46.9502 10.8721 58.8406 10.8721H58.8434Z" fill="#C0C9C0"/>
<path d="M60.971 121.772C59.8365 121.772 58.6993 121.726 57.5675 121.788C56.8284 121.829 56.6866 121.562 56.673 120.875C56.6021 117.42 56.5803 117.423 60.041 117.423C61.5382 117.423 63.0382 117.464 64.5354 117.407C65.2744 117.377 65.4162 117.633 65.4299 118.319C65.5008 121.775 65.5226 121.775 62.0591 121.775C61.6964 121.775 61.3337 121.775 60.9683 121.775L60.971 121.772Z" fill="#C0C9C0"/>
<path d="M117.739 62.5591V88.0999L44.5944 89.1763L41.7118 89.0836C41.7118 89.0836 44.9871 84.6638 43.1845 79.7644C43.1845 79.7644 40.8528 72.8403 35.6875 72.8403H30.5223L30.5905 65.2459L117.734 62.5564L117.739 62.5591Z" fill="white"/>
<path d="M66.2716 45.7876C63.9478 45.7876 61.8261 47.2023 61.1189 49.183L60.2096 51.9183L57.5827 55.0308C56.8754 55.8797 56.4713 56.8229 56.4713 57.8604V67.0093C56.4713 69.1786 58.492 70.9707 60.9168 70.9707C63.3416 70.9707 64.554 69.5559 65.0592 67.8582H83.7504C84.2555 69.5559 85.771 70.9707 87.8928 70.9707C90.0145 70.9707 92.3382 69.1786 92.3382 67.0093V57.8604C92.3382 56.8229 91.9341 55.8797 91.2269 55.0308L88.6 51.9183L87.6907 49.183C86.9834 47.2023 84.8617 45.7876 82.538 45.7876H66.2716ZM66.2716 48.9001H82.4369C83.2452 48.9001 83.9524 49.3717 84.1545 50.0319L85.2659 53.3331L88.2969 56.9172C88.499 57.2001 88.701 57.4831 88.701 57.8604V67.0093C88.701 67.4809 88.2969 67.7639 87.7917 67.7639C87.2866 67.7639 86.8824 67.3866 86.8824 67.0093V64.6513H61.8261V67.0093C61.8261 67.4809 61.422 67.7639 60.9168 67.7639C60.4116 67.7639 60.0075 67.3866 60.0075 67.0093V57.8604C60.0075 57.4831 60.1085 57.2001 60.4116 56.9172L63.4426 53.3331L64.554 50.0319C64.7561 49.3717 65.4633 48.9001 66.2716 48.9001ZM65.3623 56.7285C64.3519 56.7285 63.5437 57.3888 63.5437 58.332C63.5437 59.2752 64.3519 59.9354 65.3623 59.9354C66.3726 59.9354 67.1809 59.2752 67.1809 58.332C67.1809 57.3888 66.3726 56.7285 65.3623 56.7285ZM83.2452 56.7285C82.2349 56.7285 81.4266 57.3888 81.4266 58.332C81.4266 59.2752 82.2349 59.9354 83.2452 59.9354C84.2555 59.9354 85.0638 59.2752 85.0638 58.332C85.0638 57.3888 84.2555 56.7285 83.2452 56.7285Z" fill="#C0C9C0"/>
<path d="M43.4982 49.2216V35.8669H56.0897" stroke="#C0C9C0" stroke-width="2" stroke-linecap="round"/>
<path d="M104.93 68.6813L104.93 82.036L92.3382 82.036" stroke="#C0C9C0" stroke-width="2" stroke-linecap="round"/>
</g>
<defs>
<clipPath id="clip0_2631_7316">
<rect width="61.1918" height="84.1805" fill="white" transform="translate(126.679 23.6569)"/>
</clipPath>
<clipPath id="clip1_2631_7316">
<rect width="3.95158" height="4.24554" fill="white" transform="translate(135.392 49.2205)"/>
</clipPath>
<clipPath id="clip2_2631_7316">
<rect width="3.95158" height="4.24554" fill="white" transform="translate(135.392 56.593)"/>
</clipPath>
<clipPath id="clip3_2631_7316">
<rect width="61.1918" height="84.1805" fill="white" transform="translate(144.994 68.6815)"/>
</clipPath>
<clipPath id="clip4_2631_7316">
<rect width="3.95158" height="4.24554" fill="white" transform="translate(153.707 94.2451)"/>
</clipPath>
<clipPath id="clip5_2631_7316">
<rect width="3.95158" height="4.24554" fill="white" transform="translate(153.707 101.618)"/>
</clipPath>
<clipPath id="clip6_2631_7316">
<rect width="122.1" height="130.495" fill="white"/>
</clipPath>
</defs>
</svg>
