<svg width="28" height="28" viewBox="0 0 28 28" fill="none" xmlns="http://www.w3.org/2000/svg">
<path d="M5.875 17.125V20.875C5.87644 21.3718 6.07445 21.8479 6.42577 22.1992C6.77709 22.5505 7.25316 22.7486 7.75 22.75H20.25C20.7468 22.7486 21.2229 22.5505 21.5742 22.1992C21.9256 21.8479 22.1236 21.3718 22.125 20.875V17.125" stroke="#191C1A" stroke-width="0.7" stroke-linejoin="round"/>
<path d="M5.875 17.125H11.5C11.5 17.788 11.7634 18.4239 12.2322 18.8928C12.7011 19.3616 13.337 19.625 14 19.625C14.663 19.625 15.2989 19.3616 15.7678 18.8928C16.2366 18.4239 16.5 17.788 16.5 17.125H22.125" stroke="#191C1A" stroke-width="0.7" stroke-linecap="round" stroke-linejoin="round"/>
<path d="M19 5.24994H9C7.98438 5.24994 7.32031 5.79681 7.125 6.81244L5.875 11.4999V15.2499C5.87644 15.7468 6.07445 16.2229 6.42577 16.5742C6.77709 16.9255 7.25316 17.1235 7.75 17.1249H20.25C20.7468 17.1235 21.2229 16.9255 21.5742 16.5742C21.9256 16.2229 22.1236 15.7468 22.125 15.2499V11.4999L20.875 6.81244C20.6797 5.75775 19.9766 5.24994 19 5.24994Z" stroke="#191C1A" stroke-width="0.7" stroke-linejoin="round"/>
<path d="M5.875 11.5001H11.5C11.5 12.1631 11.7634 12.799 12.2322 13.2678C12.7011 13.7367 13.337 14.0001 14 14.0001C14.663 14.0001 15.2989 13.7367 15.7678 13.2678C16.2366 12.799 16.5 12.1631 16.5 11.5001H22.125" stroke="#212121" stroke-width="0.7" stroke-linecap="round" stroke-linejoin="round"/>
</svg>
