<svg width="202" height="115" viewBox="0 0 202 115" fill="none" xmlns="http://www.w3.org/2000/svg">
<path d="M26.5327 75.6686V49.1664H30.5097V55.6851C30.6523 55.227 30.9237 54.6162 31.3309 53.856C31.7381 53.0959 32.3286 52.329 33.1057 51.552C33.8827 50.7749 34.8634 50.1132 36.0477 49.5634C37.232 49.0171 38.6368 48.7422 40.2623 48.7422H40.5269V52.7159H40.0519C38.0735 52.7159 36.3667 53.2554 34.9381 54.3311C33.5061 55.4102 32.41 56.8049 31.6533 58.5185C30.8932 60.2322 30.5131 62.0612 30.5131 64.0022V75.6618H26.5361L26.5327 75.6686Z" fill="#0F1913"/>
<path d="M55.8954 76.0927C53.2113 76.0927 50.8597 75.4819 48.8474 74.2637C46.8318 73.0455 45.2708 71.3929 44.1578 69.306C43.0448 67.2191 42.4883 64.9252 42.4883 62.4141C42.4883 59.903 43.0176 57.565 44.0798 55.4984C45.1385 53.4285 46.6587 51.7895 48.6371 50.5679C50.6154 49.3496 52.9466 48.7388 55.6342 48.7388C58.3217 48.7388 60.6971 49.3496 62.6584 50.5679C64.6198 51.7861 66.1298 53.4285 67.1886 55.4984C68.2473 57.565 68.7766 59.8691 68.7766 62.4141V64.0022H46.5705C46.7809 65.5597 47.2865 66.9815 48.0805 68.271C48.878 69.5605 49.9435 70.5853 51.2873 71.3454C52.631 72.1055 54.1852 72.4856 55.9531 72.4856C57.8263 72.4856 59.3974 72.0716 60.6699 71.2402C61.9424 70.4088 62.9299 69.3399 63.6391 68.0335H67.986C67.0664 70.402 65.6073 72.3363 63.612 73.8361C61.6133 75.3394 59.0445 76.0893 55.8988 76.0893L55.8954 76.0927ZM46.6214 60.2966H64.6401C64.2872 58.0366 63.3337 56.1465 61.7795 54.6229C60.2254 53.1061 58.1758 52.346 55.6308 52.346C53.0857 52.346 51.0463 53.1061 49.5091 54.6229C47.972 56.1431 47.0082 58.0332 46.6214 60.2966Z" fill="#0F1913"/>
<path d="M85.0478 76.0927C82.3976 76.0927 80.1002 75.4819 78.1559 74.2637C76.2115 73.0455 74.7014 71.3929 73.6257 69.306C72.5466 67.2191 72.0071 64.9252 72.0071 62.4141C72.0071 59.903 72.5466 57.565 73.6257 55.4984C74.7014 53.4285 76.2149 51.7895 78.1559 50.5679C80.1002 49.3496 82.3976 48.7388 85.0478 48.7388C88.1934 48.7388 90.8674 49.5532 93.0765 51.1753C95.2855 52.8007 96.7786 54.9046 97.5557 57.4835H93.2631C92.6625 55.9633 91.6987 54.7281 90.3753 53.7746C89.0485 52.821 87.4503 52.3426 85.5771 52.3426C83.704 52.3426 81.9361 52.8041 80.4871 53.7203C79.0381 54.6399 77.9251 55.8581 77.148 57.3783C76.3709 58.8986 75.9807 60.5783 75.9807 62.4141C75.9807 64.2499 76.3709 65.8855 77.148 67.4227C77.9251 68.9599 79.0381 70.1883 80.4871 71.1079C81.9361 72.0275 83.6327 72.4856 85.5771 72.4856C87.5215 72.4856 89.0485 72.0071 90.3753 71.0536C91.6987 70.1 92.6625 68.8615 93.2631 67.3446H97.5557C96.7786 69.9236 95.2855 72.0275 93.0765 73.6529C90.8674 75.2783 88.19 76.0893 85.0478 76.0893V76.0927Z" fill="#0F1913"/>
<path d="M102.323 44.7143V39.5191H106.616V44.7143H102.323ZM102.483 75.6686V49.1664H106.46V75.6686H102.483Z" fill="#0F1913"/>
<path d="M113.348 75.6686V38.5656H117.322V62.3123L130.095 49.1664H135.66L125.008 59.6078L136.457 75.6686H131.581L122.303 62.3666L117.322 67.2971V75.672H113.348V75.6686Z" fill="#0F1913"/>
<path d="M139.956 75.6686V38.5656H143.929V75.6686H139.956Z" fill="#0F1913"/>
<path d="M161.368 52.4036C161.683 52.3765 161.992 52.3459 162.325 52.3459C164.303 52.3459 165.973 52.8074 167.333 53.7236C168.694 54.6432 169.726 55.8615 170.435 57.3817C171.141 58.9019 171.494 60.5816 171.494 62.4174C171.494 62.6618 171.47 62.8959 171.456 63.1368H175.43C175.44 62.8959 175.467 62.6618 175.467 62.4174C175.467 59.8724 174.938 57.5683 173.876 55.5018C172.817 53.4318 171.304 51.7928 169.342 50.5712C167.381 49.353 165.04 48.7422 162.321 48.7422C161.992 48.7422 161.683 48.7795 161.365 48.7999V52.407L161.368 52.4036Z" fill="#51ABCB"/>
<path d="M162.471 72.4788C162.42 72.4788 162.372 72.489 162.321 72.489C160.377 72.489 158.718 72.0309 157.34 71.1113C155.962 70.1917 154.917 68.9633 154.211 67.4261C153.505 65.8889 153.149 64.2194 153.149 62.4175C153.149 62.2851 153.166 62.163 153.17 62.0306H149.196C149.196 62.1596 149.176 62.2851 149.176 62.4175C149.176 64.9252 149.705 67.2225 150.764 69.3094C151.826 71.3963 153.343 73.0455 155.324 74.2671C157.303 75.4853 159.634 76.0961 162.321 76.0961C162.372 76.0961 162.42 76.0893 162.471 76.0859V72.4822V72.4788Z" fill="#57A379"/>
</svg>
