<svg width="28" height="28" viewBox="0 0 28 28" fill="none" xmlns="http://www.w3.org/2000/svg">
<path d="M9.56192 22.2059V11.3496C9.56192 10.8526 9.73777 10.4305 10.0895 10.0831C10.4412 9.73563 10.8655 9.56192 11.3624 9.56192H22.2059C22.7029 9.56192 23.1261 9.7367 23.4757 10.0862C23.8252 10.4358 24 10.8591 24 11.356V19.0876L19.0876 24H11.356C10.8591 24 10.4358 23.8252 10.0862 23.4757C9.7367 23.1261 9.56192 22.7029 9.56192 22.2059ZM4.03658 8.00278C3.93975 7.50585 4.03515 7.0584 4.32276 6.66042C4.61039 6.26245 5.00267 6.01505 5.4996 5.91822L16.1829 4.03658C16.6799 3.93975 17.1273 4.03515 17.5253 4.32276C17.9233 4.61039 18.1707 5.00267 18.2675 5.4996L18.5024 6.91351H17.379L17.1419 5.58931C17.1134 5.43268 17.028 5.30809 16.8856 5.21556C16.7432 5.12301 16.5866 5.09097 16.4157 5.11944L5.6961 7.02246C5.49676 7.05093 5.34725 7.14347 5.24758 7.30009C5.14792 7.45672 5.11232 7.63471 5.14079 7.83404L6.91351 17.8467V19.9975C6.66006 19.8736 6.4447 19.6978 6.26743 19.4699C6.09016 19.2421 5.97375 18.9809 5.91822 18.6861L4.03658 8.00278ZM10.6725 11.356V22.2059C10.6725 22.4053 10.7366 22.569 10.8648 22.6972C10.9929 22.8253 11.1567 22.8894 11.356 22.8894H18.4469L22.8894 18.4469V11.356C22.8894 11.1567 22.8253 10.9929 22.6972 10.8648C22.569 10.7366 22.4053 10.6725 22.2059 10.6725H11.356C11.1567 10.6725 10.9929 10.7366 10.8648 10.8648C10.7366 10.9929 10.6725 11.1567 10.6725 11.356ZM16.2257 20.6681H17.3363V17.3363H20.6681V16.2257H17.3363V12.8938H16.2257V16.2257H12.8938V17.3363H16.2257V20.6681Z" fill="#212121"/>
</svg>
